<svg width="54" height="54" fill="none" xmlns="http://www.w3.org/2000/svg"><path d="M15.8.333h22.4c8.533 0 15.467 6.934 15.467 15.467v22.4A15.466 15.466 0 0 1 38.2 53.667H15.8C7.267 53.667.333 46.733.333 38.2V15.8A15.467 15.467 0 0 1 15.8.333Zm-.533 5.334a9.6 9.6 0 0 0-9.6 9.6v23.466c0 5.307 4.293 9.6 9.6 9.6h23.466a9.6 9.6 0 0 0 9.6-9.6V15.267c0-5.307-4.293-9.6-9.6-9.6H15.267Zm25.733 4a3.333 3.333 0 1 1 0 6.666 3.333 3.333 0 0 1 0-6.666Zm-14 4a13.334 13.334 0 1 1 0 26.667 13.334 13.334 0 0 1 0-26.667ZM27 19a8 8 0 1 0 0 16 8 8 0 0 0 0-16Z" fill="#fff"/></svg>