<svg width="30" height="30" fill="none" xmlns="http://www.w3.org/2000/svg"><path d="M15.06 0C6.87 0 .195 6.675.195 14.865c0 2.625.69 5.175 1.98 7.425L.075 30l7.875-2.07a14.869 14.869 0 0 0 7.11 1.815c8.19 0 14.865-6.675 14.865-14.865 0-3.975-1.545-7.71-4.35-10.515A14.724 14.724 0 0 0 15.06 0Zm.015 2.505c3.3 0 6.39 1.29 8.73 3.63a12.338 12.338 0 0 1 3.615 8.745c0 6.81-5.55 12.345-12.36 12.345-2.22 0-4.395-.585-6.285-1.725l-.45-.255-4.68 1.23 1.245-4.56-.3-.48a12.281 12.281 0 0 1-1.89-6.57c.015-6.81 5.55-12.36 12.375-12.36Zm-5.28 5.49c-.24 0-.645.09-.99.465-.33.375-1.305 1.29-1.305 3.105 0 1.83 1.335 3.585 1.5 3.84.21.255 2.64 4.005 6.375 5.595.885.405 1.575.63 2.115.795.885.285 1.695.24 2.34.15.72-.105 2.19-.9 2.505-1.77.315-.87.315-1.605.225-1.77-.105-.15-.345-.24-.72-.405-.375-.21-2.205-1.11-2.535-1.23-.345-.12-.555-.18-.84.18-.24.375-.96 1.215-1.17 1.455-.225.255-.435.285-.795.105-.39-.195-1.59-.585-3-1.845-1.11-.99-1.845-2.205-2.07-2.58-.18-.36-.015-.585.165-.75.165-.165.405-.435.555-.66.195-.21.255-.375.375-.615.12-.255.06-.465-.03-.645-.09-.165-.84-2.025-1.155-2.76-.3-.72-.6-.63-.84-.645-.21 0-.45-.015-.705-.015Z" fill="#00A69A"/></svg>