<svg width="54" height="54" fill="none" xmlns="http://www.w3.org/2000/svg"><path d="M27.107.333C12.547.333.68 12.2.68 26.76c0 4.667 1.227 9.2 3.52 13.2L.467 53.667l14-3.68a26.433 26.433 0 0 0 12.64 3.226c14.56 0 26.426-11.866 26.426-26.426 0-7.067-2.746-13.707-7.733-18.694C40.813 3.08 34.173.333 27.107.333Zm.026 4.454c5.867 0 11.36 2.293 15.52 6.453 4.134 4.16 6.427 9.68 6.427 15.547 0 12.106-9.867 21.946-21.973 21.946-3.947 0-7.814-1.04-11.174-3.066l-.8-.454-8.32 2.187 2.214-8.107-.534-.853c-2.186-3.44-3.36-7.52-3.36-11.68.027-12.107 9.867-21.973 22-21.973Zm-9.386 9.76c-.427 0-1.147.16-1.76.826-.587.667-2.32 2.294-2.32 5.52 0 3.254 2.373 6.374 2.666 6.827.374.453 4.694 7.12 11.334 9.947 1.573.72 2.8 1.12 3.76 1.413 1.573.507 3.013.427 4.16.267 1.28-.187 3.893-1.6 4.453-3.147.56-1.547.56-2.853.4-3.147-.187-.266-.613-.426-1.28-.72-.667-.373-3.92-1.973-4.507-2.186-.613-.214-.986-.32-1.493.32-.427.666-1.707 2.16-2.08 2.586-.4.454-.773.507-1.413.187-.694-.347-2.827-1.04-5.334-3.28-1.973-1.76-3.28-3.92-3.68-4.587-.32-.64-.026-1.04.294-1.333a8.8 8.8 0 0 0 .986-1.173c.347-.374.454-.667.667-1.094.213-.453.107-.826-.053-1.146-.16-.294-1.494-3.6-2.054-4.907-.533-1.28-1.066-1.12-1.493-1.147-.373 0-.8-.026-1.253-.026Z" fill="#fff"/></svg>